<svg xmlns="http://www.w3.org/2000/svg" version="1.1" xmlns:xlink="http://www.w3.org/1999/xlink" viewBox="0 0 22.435714369694885 5.891430924445737"><g transform="matrix(1,0,0,1,0.9148544490685957,1.9775404622228683)"><g clip-path="url(#SvgjsClipPath1001)"><g clip-path="url(#SvgjsClipPath1000939e3e50-3e44-4704-8dbf-937d721abc23)"><path d=" M 18.631557452397782 1.9957960485462705 C 18.59499598245425 1.6742920855335437 18.731336412130723 1.327533625689448 18.996264885727122 1.068170620295564 C 19.202532511991894 0.8662497465685224 19.47224105925128 0.7813662005162851 19.776242911189186 0.8226603496247318 C 19.858153938695402 0.8341964326721345 19.938735801055493 0.8537398133728513 20.016830924702802 0.8810097473975771 C 19.37401257666965 0.23576750932001933 18.378051052837446 -0.7588872804938327 18.28253082728867 -0.8309336882103417 C 18.040392336623743 -1.0135582305782957 17.56273704373921 -1.2539905193125274 17.084248961817078 -0.8123618156075425 C 16.863871316411135 -0.6089649417975951 16.74910215400135 -0.3867998467499666 16.74307628210325 -0.15205489778472958 C 16.73709103406064 0.08197913370938337 16.843748966657028 0.2762356400334467 16.936906237944637 0.37148503987893555 C 17.07051809866051 0.5081030659012764 18.07077220988979 1.4996433601273451 18.642498810810515 2.0660414653359314 C 18.63791282890155 2.0429671154160136 18.634265709430636 2.0195519764861274 18.631557452397782 1.9957960485462705 Z" fill="#382d5e" transform="matrix(1,0,0,1,0,0)" fill-rule="nonzero"></path></g><g clip-path="url(#SvgjsClipPath1000939e3e50-3e44-4704-8dbf-937d721abc23)"><path d=" M 20.3599129256248 1.2255948309728106 C 20.08385351562337 0.9922175518091634 19.495301867886035 0.7694295576439796 19.091094505732514 1.1650720569310966 C 18.855821446645873 1.3953890056476164 18.73438320129268 1.7002033346953778 18.766252615926795 1.980467313740316 C 18.779212128789176 2.1048732320022148 18.82609602582687 2.2233289648664067 18.901787339135993 2.32290610361701 C 18.980848132567594 2.4012085850794107 19.03059881426113 2.450471780507031 19.038987640420398 2.4587725883127307 C 19.061123791266326 2.475565397061901 19.0840967012792 2.4912256632815746 19.107817992910398 2.505693141406933 C 19.668975620760406 2.8484230689146575 20.05174712849888 2.303487900691443 20.093542305158408 2.2402230164039634 C 20.245082827431776 2.0108539576489424 20.31155699630319 1.6871021412989458 20.043608816115153 1.4663385692658188 C 19.92143934136309 1.3656861966397864 19.783311462044935 1.3196864509367527 19.6442289221227 1.333234506743607 C 19.508651840106396 1.3473758431251412 19.384140773941073 1.4144736084077052 19.2977751411948 1.5199349759460068 C 19.188368327710066 1.6532760109585931 19.134514636611755 1.8153245705194356 19.157230142474823 1.9428496235539674 C 19.172910950695048 2.0308679771217357 19.223805870984968 2.100754549854543 19.30851338033007 2.1505120021906605 C 19.402997697563777 2.2059974181512647 19.49813199648537 2.2216511438011644 19.59125541456007 2.1969382983763674 C 19.69111562200399 2.1704718565227967 19.76932331447025 2.1014722379682516 19.799682875808546 2.0486138313295155 C 19.840895777206008 1.9768856438143665 19.85520214498206 1.8877162810076356 19.83520843743701 1.8267398739129188 C 19.82355512496027 1.7894908002769996 19.7958189241251 1.7594264779527582 19.75962775429263 1.7448150986690747 C 19.713851439794805 1.7245911892762331 19.66869125377196 1.7236703818850625 19.632448004029786 1.742269337058191 C 19.593178277053394 1.7624458519529558 19.565960293873207 1.8040243680498542 19.553773137225363 1.8625024080317627 C 19.550117270558538 1.8801152957883756 19.53960679664513 1.8955511458610936 19.524558832017863 1.9054070038546467 C 19.509510867390592 1.9152628618481997 19.491160986207756 1.9187294725745043 19.473554563912217 1.9150425944691376 C 19.45595123196814 1.9113751446510312 19.44052624879617 1.9008639357014885 19.430673949285115 1.8858220050392913 C 19.42082164977406 1.8707800743770973 19.417349351233828 1.8524399881645452 19.421021148117426 1.8348375624411544 C 19.44155650706904 1.7363111715859123 19.49464511555557 1.6606018462324665 19.570503395045826 1.6216503394574384 C 19.643883619351016 1.5839514015601046 19.73053430311719 1.5836670345716555 19.814490271135675 1.6208107797772526 C 19.8858251408053 1.650994605627785 19.940450011554645 1.7107867607016605 19.96408084834539 1.7845519999836297 C 20.002544868854503 1.9020226487836873 19.965116756660457 2.032872087326049 19.91726185488992 2.1161713030140685 C 19.87183761380637 2.1952253258030874 19.76415731418008 2.291395533039749 19.626002352291593 2.328017938766521 C 19.498416363473822 2.361816986536544 19.36488575046894 2.34088215967258 19.239831981976884 2.267434228941567 C 19.1210816817288 2.1976966103455666 19.046354099549767 2.0936656870710473 19.023726612040267 1.9666348909450124 C 18.99380714246981 1.798655248482219 19.057065256114704 1.599517108856435 19.192945282095593 1.4339139619399712 C 19.30222770541453 1.3007087712390968 19.459678285838518 1.2160317575969741 19.631060022300446 1.198295600081638 C 19.80676496794946 1.181159103706252 19.979260629014536 1.237660116054177 20.12983294939866 1.3617186000866544 C 20.46757968396593 1.6399920102124423 20.382323752571672 2.0491622533786664 20.206686513348487 2.3150250756514015 C 20.07864689147771 2.5088076369947165 19.81228981229648 2.7532278342098255 19.471164527080724 2.753248146137571 C 19.336794354395654 2.753248146137571 19.190859924180295 2.7153325476776105 19.037166337565807 2.621457588276295 C 18.948086409095954 2.567630459253824 18.869234071814905 2.4984650399189876 18.80425623274033 2.417160219002924 C 18.56414893485004 2.179368480875724 18.058476722960634 1.678483113291887 17.618330789981133 1.2416547951776367 L 15.866596287918002 1.2416547951776367 L 17.6481351586277 2.9990834076523476 L 19.57965053317429 2.9990834076523476 C 19.784218728150947 2.9990834076523476 20.300663032388535 2.8395264445617316 20.502712548324638 2.3654460509605686 C 20.65746235518193 2.0022146177141362 20.660041970005725 1.479311120453191 20.3599129256248 1.2255948309728106 Z" fill="#382d5e" transform="matrix(1,0,0,1,0,0)" fill-rule="nonzero"></path></g></g><g><path d=" M 1.176 1.0574999999999999 L 1.1745 0.15899999999999992 L 0.735 0.9179999999999999 L 0.6975 0.9179999999999999 L 0.258 0.1619999999999998 L 0.258 1.0574999999999999 L 0.183 1.0574999999999999 L 0.183 0.00749999999999984 L 0.2475 0.00749999999999984 L 0.717 0.8189999999999998 L 1.1865 0.00749999999999984 L 1.2495 0.00749999999999984 L 1.2510000000000001 1.0574999999999999 L 1.176 1.0574999999999999 M 1.664990478515625 0.00749999999999984 L 1.741490478515625 0.00749999999999984 L 1.741490478515625 1.0574999999999999 L 1.664990478515625 1.0574999999999999 L 1.664990478515625 0.00749999999999984 M 2.88446484375 1.0574999999999999 L 2.6339648437500003 0.7064999999999999 Q 2.57846484375 0.7139999999999999 2.53196484375 0.7139999999999999 L 2.23196484375 0.7139999999999999 L 2.23196484375 1.0574999999999999 L 2.15546484375 1.0574999999999999 L 2.15546484375 0.00749999999999984 L 2.53196484375 0.00749999999999984 Q 2.7299648437500004 0.00749999999999984 2.84246484375 0.10124999999999984 Q 2.95496484375 0.19499999999999984 2.95496484375 0.3614999999999998 Q 2.95496484375 0.4859999999999999 2.8912148437500003 0.5707499999999999 Q 2.82746484375 0.6554999999999999 2.70896484375 0.69 L 2.97146484375 1.0574999999999999 L 2.88446484375 1.0574999999999999 M 2.53196484375 0.6464999999999999 Q 2.69996484375 0.6464999999999999 2.78846484375 0.5722499999999999 Q 2.87696484375 0.4979999999999999 2.87696484375 0.3614999999999998 Q 2.87696484375 0.22499999999999987 2.78846484375 0.15074999999999983 Q 2.69996484375 0.0764999999999999 2.53196484375 0.0764999999999999 L 2.23196484375 0.0764999999999999 L 2.23196484375 0.6464999999999999 L 2.53196484375 0.6464999999999999 M 4.0169208984375 0.9884999999999999 L 4.0169208984375 1.0574999999999999 L 3.1709208984375 1.0574999999999999 L 3.1709208984375 1.0034999999999998 L 3.8954208984375 0.0764999999999999 L 3.1799208984375 0.0764999999999999 L 3.1799208984375 0.00749999999999984 L 4.0004208984375005 0.00749999999999984 L 4.0004208984375005 0.06149999999999989 L 3.2774208984375 0.9884999999999999 L 4.0169208984375 0.9884999999999999 M 4.9499150390625 0.7619999999999999 L 4.3409150390625 0.7619999999999999 L 4.2074150390625 1.0574999999999999 L 4.1249150390625005 1.0574999999999999 L 4.6079150390625 0.00749999999999984 L 4.6844150390625 0.00749999999999984 L 5.1674150390625 1.0574999999999999 L 5.0849150390625 1.0574999999999999 L 4.9499150390625 0.7619999999999999 M 4.9214150390625 0.6974999999999999 L 4.645415039062501 0.09149999999999991 L 4.3709150390625 0.6974999999999999 L 4.9214150390625 0.6974999999999999 M 6.092940673828125 0.10124999999999984 Q 6.205440673828125 0.19499999999999984 6.205440673828125 0.3614999999999998 Q 6.205440673828125 0.5264999999999999 6.092940673828125 0.6202499999999999 Q 5.9804406738281255 0.7139999999999999 5.782440673828125 0.7139999999999999 L 5.482440673828125 0.7139999999999999 L 5.482440673828125 1.0574999999999999 L 5.405940673828125 1.0574999999999999 L 5.405940673828125 0.00749999999999984 L 5.782440673828125 0.00749999999999984 Q 5.9804406738281255 0.00749999999999984 6.092940673828125 0.10124999999999984 M 6.038940673828125 0.5714999999999999 Q 6.127440673828125 0.4979999999999999 6.127440673828125 0.3614999999999998 Q 6.127440673828125 0.22499999999999987 6.038940673828125 0.15074999999999983 Q 5.950440673828125 0.0764999999999999 5.782440673828125 0.0764999999999999 L 5.482440673828125 0.0764999999999999 L 5.482440673828125 0.6449999999999998 L 5.782440673828125 0.6449999999999998 Q 5.950440673828125 0.6449999999999998 6.038940673828125 0.5714999999999999 M 6.623244873046875 0.9494999999999999 Q 6.512994873046876 0.8339999999999999 6.512994873046876 0.6119999999999999 L 6.512994873046876 0.00749999999999984 L 6.589494873046875 0.00749999999999984 L 6.589494873046875 0.6089999999999999 Q 6.589494873046875 0.8024999999999999 6.677994873046876 0.8984999999999999 Q 6.7664948730468755 0.9944999999999999 6.934494873046876 0.9944999999999999 Q 7.100994873046876 0.9944999999999999 7.1894948730468755 0.8984999999999999 Q 7.277994873046875 0.8024999999999999 7.277994873046875 0.6089999999999999 L 7.277994873046875 0.00749999999999984 L 7.3544948730468755 0.00749999999999984 L 7.3544948730468755 0.6119999999999999 Q 7.3544948730468755 0.8339999999999999 7.243494873046875 0.9494999999999999 Q 7.132494873046875 1.065 6.932994873046876 1.065 Q 6.733494873046875 1.065 6.623244873046875 0.9494999999999999 M 8.488539550781251 1.0574999999999999 L 8.23803955078125 0.7064999999999999 Q 8.18253955078125 0.7139999999999999 8.13603955078125 0.7139999999999999 L 7.83603955078125 0.7139999999999999 L 7.83603955078125 1.0574999999999999 L 7.75953955078125 1.0574999999999999 L 7.75953955078125 0.00749999999999984 L 8.13603955078125 0.00749999999999984 Q 8.33403955078125 0.00749999999999984 8.44653955078125 0.10124999999999984 Q 8.55903955078125 0.19499999999999984 8.55903955078125 0.3614999999999998 Q 8.55903955078125 0.4859999999999999 8.49528955078125 0.5707499999999999 Q 8.43153955078125 0.6554999999999999 8.31303955078125 0.69 L 8.57553955078125 1.0574999999999999 L 8.488539550781251 1.0574999999999999 M 8.13603955078125 0.6464999999999999 Q 8.304039550781251 0.6464999999999999 8.392539550781251 0.5722499999999999 Q 8.48103955078125 0.4979999999999999 8.48103955078125 0.3614999999999998 Q 8.48103955078125 0.22499999999999987 8.392539550781251 0.15074999999999983 Q 8.304039550781251 0.0764999999999999 8.13603955078125 0.0764999999999999 L 7.83603955078125 0.0764999999999999 L 7.83603955078125 0.6464999999999999 L 8.13603955078125 0.6464999999999999 M 9.486774169921876 0.9959999999999999 Q 9.363024169921875 0.9269999999999998 9.291774169921876 0.8054999999999999 Q 9.220524169921875 0.6839999999999999 9.220524169921875 0.5324999999999999 Q 9.220524169921875 0.3809999999999999 9.291774169921876 0.25949999999999984 Q 9.363024169921875 0.1379999999999999 9.486774169921876 0.06899999999999984 Q 9.610524169921876 -2.220446049250313e-16 9.765024169921876 -2.220446049250313e-16 Q 9.879024169921875 -2.220446049250313e-16 9.975024169921875 0.03674999999999984 Q 10.071024169921875 0.0734999999999999 10.138524169921876 0.14549999999999985 L 10.090524169921876 0.19499999999999984 Q 9.964524169921875 0.0704999999999999 9.768024169921876 0.0704999999999999 Q 9.636024169921875 0.0704999999999999 9.528024169921876 0.13049999999999984 Q 9.420024169921875 0.1904999999999999 9.358524169921875 0.2962499999999999 Q 9.297024169921876 0.4019999999999999 9.297024169921876 0.5324999999999999 Q 9.297024169921876 0.6629999999999998 9.358524169921875 0.7687499999999998 Q 9.420024169921875 0.8744999999999998 9.528024169921876 0.9344999999999999 Q 9.636024169921875 0.9944999999999999 9.768024169921876 0.9944999999999999 Q 9.963024169921875 0.9944999999999999 10.090524169921876 0.8684999999999998 L 10.138524169921876 0.9179999999999999 Q 10.071024169921875 0.9899999999999999 9.974274169921875 1.0274999999999999 Q 9.877524169921875 1.065 9.765024169921876 1.065 Q 9.610524169921876 1.065 9.486774169921876 0.9959999999999999 M 11.064056396484375 0.7619999999999999 L 10.455056396484375 0.7619999999999999 L 10.321556396484375 1.0574999999999999 L 10.239056396484376 1.0574999999999999 L 10.722056396484376 0.00749999999999984 L 10.798556396484376 0.00749999999999984 L 11.281556396484376 1.0574999999999999 L 11.199056396484375 1.0574999999999999 L 11.064056396484375 0.7619999999999999 M 11.035556396484376 0.6974999999999999 L 10.759556396484376 0.09149999999999991 L 10.485056396484376 0.6974999999999999 L 11.035556396484376 0.6974999999999999 M 12.249082031250001 1.0574999999999999 L 11.99858203125 0.7064999999999999 Q 11.94308203125 0.7139999999999999 11.89658203125 0.7139999999999999 L 11.59658203125 0.7139999999999999 L 11.59658203125 1.0574999999999999 L 11.52008203125 1.0574999999999999 L 11.52008203125 0.00749999999999984 L 11.89658203125 0.00749999999999984 Q 12.09458203125 0.00749999999999984 12.20708203125 0.10124999999999984 Q 12.31958203125 0.19499999999999984 12.31958203125 0.3614999999999998 Q 12.31958203125 0.4859999999999999 12.25583203125 0.5707499999999999 Q 12.192082031250001 0.6554999999999999 12.07358203125 0.69 L 12.336082031250001 1.0574999999999999 L 12.249082031250001 1.0574999999999999 M 11.89658203125 0.6464999999999999 Q 12.064582031250001 0.6464999999999999 12.153082031250001 0.5722499999999999 Q 12.241582031250001 0.4979999999999999 12.241582031250001 0.3614999999999998 Q 12.241582031250001 0.22499999999999987 12.153082031250001 0.15074999999999983 Q 12.064582031250001 0.0764999999999999 11.89658203125 0.0764999999999999 L 11.59658203125 0.0764999999999999 L 11.59658203125 0.6464999999999999 L 11.89658203125 0.6464999999999999 M 13.3350380859375 0.10124999999999984 Q 13.4475380859375 0.19499999999999984 13.4475380859375 0.3614999999999998 Q 13.4475380859375 0.5264999999999999 13.3350380859375 0.6202499999999999 Q 13.2225380859375 0.7139999999999999 13.0245380859375 0.7139999999999999 L 12.7245380859375 0.7139999999999999 L 12.7245380859375 1.0574999999999999 L 12.6480380859375 1.0574999999999999 L 12.6480380859375 0.00749999999999984 L 13.0245380859375 0.00749999999999984 Q 13.2225380859375 0.00749999999999984 13.3350380859375 0.10124999999999984 M 13.281038085937501 0.5714999999999999 Q 13.369538085937501 0.4979999999999999 13.369538085937501 0.3614999999999998 Q 13.369538085937501 0.22499999999999987 13.281038085937501 0.15074999999999983 Q 13.1925380859375 0.0764999999999999 13.0245380859375 0.0764999999999999 L 12.7245380859375 0.0764999999999999 L 12.7245380859375 0.6449999999999998 L 13.0245380859375 0.6449999999999998 Q 13.1925380859375 0.6449999999999998 13.281038085937501 0.5714999999999999 M 14.478063720703126 0.9884999999999999 L 14.478063720703126 1.0574999999999999 L 13.753563720703125 1.0574999999999999 L 13.753563720703125 0.00749999999999984 L 14.455563720703125 0.00749999999999984 L 14.455563720703125 0.0764999999999999 L 13.830063720703125 0.0764999999999999 L 13.830063720703125 0.4904999999999998 L 14.389563720703126 0.4904999999999998 L 14.389563720703126 0.5579999999999998 L 13.830063720703125 0.5579999999999998 L 13.830063720703125 0.9884999999999999 L 14.478063720703126 0.9884999999999999 M 15.006073242187501 0.0764999999999999 L 14.6280732421875 0.0764999999999999 L 14.6280732421875 0.00749999999999984 L 15.4605732421875 0.00749999999999984 L 15.4605732421875 0.0764999999999999 L 15.0825732421875 0.0764999999999999 L 15.0825732421875 1.0574999999999999 L 15.006073242187501 1.0574999999999999 L 15.006073242187501 0.0764999999999999" fill="#382d5e" fill-rule="nonzero"></path></g><g><path d=" M 11.541409057617187 1.7102249999999999 Q 11.569534057617188 1.7435999999999998 11.569534057617188 1.7960999999999998 Q 11.569534057617188 1.8635999999999997 11.519659057617188 1.8999749999999997 Q 11.469784057617188 1.9363499999999998 11.372284057617188 1.9363499999999998 L 11.130784057617188 1.9363499999999998 L 11.130784057617188 1.4113499999999997 L 11.357284057617187 1.4113499999999997 Q 11.445034057617187 1.4113499999999997 11.493409057617187 1.4465999999999997 Q 11.541784057617187 1.4818499999999997 11.541784057617187 1.54635 Q 11.541784057617187 1.5898499999999998 11.520409057617188 1.6202249999999998 Q 11.499034057617187 1.6505999999999998 11.461534057617188 1.6655999999999997 Q 11.513284057617188 1.6768499999999997 11.541409057617187 1.7102249999999999 M 11.186284057617188 1.4570999999999998 L 11.186284057617188 1.6475999999999997 L 11.353534057617187 1.6475999999999997 Q 11.417284057617188 1.6475999999999997 11.451784057617187 1.6232249999999997 Q 11.486284057617189 1.5988499999999997 11.486284057617189 1.5523499999999997 Q 11.486284057617189 1.5058499999999997 11.451784057617187 1.4814749999999997 Q 11.417284057617188 1.4570999999999998 11.353534057617187 1.4570999999999998 L 11.186284057617188 1.4570999999999998 M 11.478034057617188 1.8665999999999998 Q 11.514034057617188 1.8425999999999998 11.514034057617188 1.7915999999999999 Q 11.514034057617188 1.6933499999999997 11.371534057617188 1.6933499999999997 L 11.186284057617188 1.6933499999999997 L 11.186284057617188 1.8905999999999998 L 11.371534057617188 1.8905999999999998 Q 11.442034057617189 1.8905999999999998 11.478034057617188 1.8665999999999998 M 12.079555297851563 1.8883499999999998 L 12.079555297851563 1.9363499999999998 L 11.708305297851563 1.9363499999999998 L 11.708305297851563 1.4113499999999997 L 12.068305297851563 1.4113499999999997 L 12.068305297851563 1.4593499999999997 L 11.763805297851563 1.4593499999999997 L 11.763805297851563 1.6460999999999997 L 12.035305297851563 1.6460999999999997 L 12.035305297851563 1.6933499999999997 L 11.763805297851563 1.6933499999999997 L 11.763805297851563 1.8883499999999998 L 12.079555297851563 1.8883499999999998 M 12.25468505859375 1.9220999999999997 Q 12.201060058593752 1.9033499999999999 12.171810058593751 1.8725999999999998 L 12.193560058593752 1.8298499999999998 Q 12.222060058593751 1.8583499999999997 12.269310058593751 1.8759749999999997 Q 12.316560058593751 1.8935999999999997 12.366810058593751 1.8935999999999997 Q 12.437310058593752 1.8935999999999997 12.472560058593752 1.8677249999999999 Q 12.507810058593751 1.8418499999999998 12.507810058593751 1.8005999999999998 Q 12.507810058593751 1.7691 12.488685058593752 1.7503499999999999 Q 12.469560058593752 1.7315999999999998 12.441810058593752 1.7214749999999999 Q 12.414060058593751 1.7113499999999997 12.364560058593751 1.6993499999999997 Q 12.30531005859375 1.6843499999999998 12.270060058593751 1.6704749999999997 Q 12.234810058593752 1.6565999999999999 12.20968505859375 1.6280999999999999 Q 12.184560058593751 1.5995999999999997 12.184560058593751 1.5508499999999998 Q 12.184560058593751 1.5110999999999999 12.205560058593752 1.4784749999999998 Q 12.226560058593751 1.4458499999999999 12.270060058593751 1.4263499999999998 Q 12.313560058593751 1.40685 12.378060058593752 1.40685 Q 12.423060058593752 1.40685 12.466185058593751 1.4192249999999997 Q 12.509310058593751 1.4315999999999998 12.54081005859375 1.45335 L 12.522060058593752 1.4975999999999998 Q 12.48906005859375 1.4758499999999999 12.451560058593751 1.464975 Q 12.414060058593751 1.4540999999999997 12.378060058593752 1.4540999999999997 Q 12.30906005859375 1.4540999999999997 12.274185058593751 1.4807249999999998 Q 12.239310058593752 1.5073499999999997 12.239310058593752 1.5493499999999998 Q 12.239310058593752 1.5808499999999999 12.25843505859375 1.5999749999999997 Q 12.277560058593751 1.6190999999999998 12.30643505859375 1.629225 Q 12.335310058593752 1.6393499999999999 12.384060058593752 1.6513499999999999 Q 12.441810058593752 1.6655999999999997 12.477435058593752 1.6794749999999998 Q 12.513060058593751 1.6933499999999997 12.53781005859375 1.7214749999999999 Q 12.562560058593752 1.7495999999999998 12.562560058593752 1.7975999999999999 Q 12.562560058593752 1.8373499999999998 12.54118505859375 1.8699749999999997 Q 12.519810058593752 1.9025999999999998 12.475560058593752 1.9217249999999997 Q 12.431310058593752 1.9408499999999997 12.366810058593751 1.9408499999999997 Q 12.30831005859375 1.9408499999999997 12.25468505859375 1.9220999999999997 M 12.789795410156252 1.4593499999999997 L 12.605295410156252 1.4593499999999997 L 12.605295410156252 1.4113499999999997 L 13.029795410156252 1.4113499999999997 L 13.029795410156252 1.4593499999999997 L 12.845295410156252 1.4593499999999997 L 12.845295410156252 1.9363499999999998 L 12.789795410156252 1.9363499999999998 L 12.789795410156252 1.4593499999999997 M 13.697294311523441 1.9363499999999998 L 13.57729431152344 1.7675999999999998 Q 13.557044311523441 1.7698499999999997 13.53529431152344 1.7698499999999997 L 13.39429431152344 1.7698499999999997 L 13.39429431152344 1.9363499999999998 L 13.33879431152344 1.9363499999999998 L 13.33879431152344 1.4113499999999997 L 13.53529431152344 1.4113499999999997 Q 13.63579431152344 1.4113499999999997 13.692794311523441 1.4593499999999997 Q 13.74979431152344 1.5073499999999997 13.74979431152344 1.5913499999999998 Q 13.74979431152344 1.6528499999999997 13.71866931152344 1.6952249999999998 Q 13.68754431152344 1.7375999999999998 13.62979431152344 1.7563499999999999 L 13.75804431152344 1.9363499999999998 L 13.697294311523441 1.9363499999999998 M 13.65304431152344 1.6880999999999997 Q 13.694294311523441 1.6535999999999997 13.694294311523441 1.5913499999999998 Q 13.694294311523441 1.5275999999999998 13.65304431152344 1.4934749999999997 Q 13.61179431152344 1.4593499999999997 13.53379431152344 1.4593499999999997 L 13.39429431152344 1.4593499999999997 L 13.39429431152344 1.7226 L 13.53379431152344 1.7226 Q 13.61179431152344 1.7226 13.65304431152344 1.6880999999999997 M 13.945561157226566 1.8823499999999997 Q 13.888561157226565 1.8238499999999997 13.888561157226565 1.7120999999999997 L 13.888561157226565 1.4113499999999997 L 13.944061157226566 1.4113499999999997 L 13.944061157226566 1.7098499999999999 Q 13.944061157226566 1.8013499999999998 13.985311157226565 1.8463499999999997 Q 14.026561157226565 1.8913499999999999 14.104561157226566 1.8913499999999999 Q 14.183311157226566 1.8913499999999999 14.224561157226566 1.8463499999999997 Q 14.265811157226565 1.8013499999999998 14.265811157226565 1.7098499999999999 L 14.265811157226565 1.4113499999999997 L 14.319811157226566 1.4113499999999997 L 14.319811157226566 1.7120999999999997 Q 14.319811157226566 1.8238499999999997 14.263186157226565 1.8823499999999997 Q 14.206561157226567 1.9408499999999997 14.104561157226566 1.9408499999999997 Q 14.002561157226566 1.9408499999999997 13.945561157226566 1.8823499999999997 M 14.868805297851566 1.6738499999999998 L 14.922055297851566 1.6738499999999998 L 14.922055297851566 1.8740999999999999 Q 14.885305297851566 1.9063499999999998 14.835055297851566 1.9235999999999998 Q 14.784805297851566 1.9408499999999997 14.729305297851566 1.9408499999999997 Q 14.650555297851566 1.9408499999999997 14.587555297851566 1.9063499999999998 Q 14.524555297851567 1.8718499999999998 14.488555297851565 1.8107249999999997 Q 14.452555297851566 1.7495999999999998 14.452555297851566 1.6738499999999998 Q 14.452555297851566 1.5980999999999999 14.488555297851565 1.5369749999999998 Q 14.524555297851567 1.4758499999999999 14.587555297851566 1.44135 Q 14.650555297851566 1.40685 14.730055297851566 1.40685 Q 14.790055297851566 1.40685 14.840305297851566 1.4259749999999998 Q 14.890555297851567 1.4450999999999998 14.925055297851566 1.4825999999999997 L 14.890555297851567 1.5178499999999997 Q 14.828305297851566 1.4563499999999998 14.732305297851566 1.4563499999999998 Q 14.668555297851567 1.4563499999999998 14.617180297851567 1.4844749999999998 Q 14.565805297851567 1.5125999999999997 14.536555297851566 1.5624749999999998 Q 14.507305297851566 1.6123499999999997 14.507305297851566 1.6738499999999998 Q 14.507305297851566 1.7353499999999997 14.536555297851566 1.7848499999999998 Q 14.565805297851567 1.8343499999999997 14.616805297851567 1.86285 Q 14.667805297851567 1.8913499999999999 14.731555297851566 1.8913499999999999 Q 14.812555297851567 1.8913499999999999 14.868805297851566 1.8508499999999999 L 14.868805297851566 1.6738499999999998 M 15.123437988281253 1.9220999999999997 Q 15.069812988281255 1.9033499999999999 15.040562988281254 1.8725999999999998 L 15.062312988281255 1.8298499999999998 Q 15.090812988281254 1.8583499999999997 15.138062988281254 1.8759749999999997 Q 15.185312988281254 1.8935999999999997 15.235562988281254 1.8935999999999997 Q 15.306062988281255 1.8935999999999997 15.341312988281254 1.8677249999999999 Q 15.376562988281254 1.8418499999999998 15.376562988281254 1.8005999999999998 Q 15.376562988281254 1.7691 15.357437988281255 1.7503499999999999 Q 15.338312988281254 1.7315999999999998 15.310562988281255 1.7214749999999999 Q 15.282812988281254 1.7113499999999997 15.233312988281254 1.6993499999999997 Q 15.174062988281253 1.6843499999999998 15.138812988281254 1.6704749999999997 Q 15.103562988281254 1.6565999999999999 15.078437988281253 1.6280999999999999 Q 15.053312988281254 1.5995999999999997 15.053312988281254 1.5508499999999998 Q 15.053312988281254 1.5110999999999999 15.074312988281255 1.4784749999999998 Q 15.095312988281254 1.4458499999999999 15.138812988281254 1.4263499999999998 Q 15.182312988281254 1.40685 15.246812988281254 1.40685 Q 15.291812988281254 1.40685 15.334937988281254 1.4192249999999997 Q 15.378062988281254 1.4315999999999998 15.409562988281253 1.45335 L 15.390812988281255 1.4975999999999998 Q 15.357812988281253 1.4758499999999999 15.320312988281254 1.464975 Q 15.282812988281254 1.4540999999999997 15.246812988281254 1.4540999999999997 Q 15.177812988281254 1.4540999999999997 15.142937988281254 1.4807249999999998 Q 15.108062988281254 1.5073499999999997 15.108062988281254 1.5493499999999998 Q 15.108062988281254 1.5808499999999999 15.127187988281253 1.5999749999999997 Q 15.146312988281254 1.6190999999999998 15.175187988281253 1.629225 Q 15.204062988281255 1.6393499999999999 15.252812988281255 1.6513499999999999 Q 15.310562988281255 1.6655999999999997 15.346187988281255 1.6794749999999998 Q 15.381812988281254 1.6933499999999997 15.406562988281253 1.7214749999999999 Q 15.431312988281254 1.7495999999999998 15.431312988281254 1.7975999999999999 Q 15.431312988281254 1.8373499999999998 15.409937988281253 1.8699749999999997 Q 15.388562988281254 1.9025999999999998 15.344312988281255 1.9217249999999997 Q 15.300062988281255 1.9408499999999997 15.235562988281254 1.9408499999999997 Q 15.177062988281254 1.9408499999999997 15.123437988281253 1.9220999999999997" fill="#382d5e" fill-rule="nonzero"></path></g></g><defs><clipPath id="SvgjsClipPath1001"><path d=" M 15.866555664062501 -1.062686013154273 h 4.739449807495194 v 4.061722026308546 h -4.739449807495194 Z"></path></clipPath><clipPath id="SvgjsClipPath1000939e3e50-3e44-4704-8dbf-937d721abc23"><path d=" M 15.866555664062501 -1.062686013154273 L 20.606005471557694 -1.062686013154273 L 20.606005471557694 2.999036013154273 L 15.866555664062501 2.999036013154273 Z"></path></clipPath></defs></svg>